HIERARCHY
ROOT Hips
{
	OFFSET 0.000000 35.082581 0.000000
	CHANNELS 6 Xposition Yposition Zposition Xrotation Yrotation Zrotation 
	JOINT Spine
	{
		OFFSET 0.000000 6.876099 0.125700
		CHANNELS 3 Xrotation Yrotation Zrotation
		JOINT Spine1
		{
			OFFSET 0.000000 5.730043 0.104720
			CHANNELS 3 Xrotation Yrotation Zrotation
			JOINT Spine1_split
			{
				OFFSET 0.000000 5.730043 0.104720
				CHANNELS 3 Xrotation Yrotation Zrotation
				JOINT Spine2
				{
					OFFSET 0.000000 5.730043 0.104720
					CHANNELS 3 Xrotation Yrotation Zrotation
					JOINT Neck
					{
						OFFSET 0.000000 10.314075 0.188496
						CHANNELS 3 Xrotation Yrotation Zrotation
						JOINT Head
						{
							OFFSET 0.000000 7.643700 -2.377400
							CHANNELS 3 Xrotation Yrotation Zrotation
							JOINT HeadTop_End
							{
								OFFSET 0.000000 43.788605 -13.619600
								CHANNELS 3 Xrotation Yrotation Zrotation
								End Site
								{
									OFFSET 0.000000 0.000000 0.000000
								}
							}
						}
					}
					JOINT LeftShoulder
					{
						OFFSET 2.196100 4.412489 0.087492
						CHANNELS 3 Xrotation Yrotation Zrotation
						JOINT LeftShoulder_split
						{
							OFFSET 2.196100 4.412489 0.087492
							CHANNELS 3 Xrotation Yrotation Zrotation
							JOINT LeftArm
							{
								OFFSET 8.771219 -2.981674 -0.026999
								CHANNELS 3 Xrotation Yrotation Zrotation
								JOINT LeftForeArm
								{
									OFFSET 8.512804 0.000000 -0.000000
									CHANNELS 3 Xrotation Yrotation Zrotation
									JOINT LeftHand
									{
										OFFSET 18.484802 0.000000 -0.000000
										CHANNELS 3 Xrotation Yrotation Zrotation
										JOINT LeftHandThumb1
										{
											OFFSET 2.499420 -1.158070 2.653252
											CHANNELS 3 Xrotation Yrotation Zrotation
											JOINT LeftHandThumb2
											{
												OFFSET 2.370079 -1.368366 1.368366
												CHANNELS 3 Xrotation Yrotation Zrotation
												JOINT LeftHandThumb3
												{
													OFFSET 2.676727 -1.545410 1.545409
													CHANNELS 3 Xrotation Yrotation Zrotation
													JOINT LeftHandThumb4
													{
														OFFSET 1.692226 -0.977005 0.977007
														CHANNELS 3 Xrotation Yrotation Zrotation
														End Site
														{
															OFFSET 0.000000 0.000000 0.000000
														}
													}
												}
											}
										}
										JOINT LeftHandIndex1
										{
											OFFSET 7.924831 -0.457527 2.345128
											CHANNELS 3 Xrotation Yrotation Zrotation
											JOINT LeftHandIndex2
											{
												OFFSET 3.643303 0.000000 0.000000
												CHANNELS 3 Xrotation Yrotation Zrotation
												JOINT LeftHandIndex3
												{
													OFFSET 3.810799 0.000000 0.000000
													CHANNELS 3 Xrotation Yrotation Zrotation
													JOINT LeftHandIndex4
													{
														OFFSET 2.403702 0.000000 0.000000
														CHANNELS 3 Xrotation Yrotation Zrotation
														End Site
														{
															OFFSET 0.000000 0.000000 0.000000
														}
													}
												}
											}
										}
										JOINT LeftHandMiddle1
										{
											OFFSET 8.563995 0.000000 -0.000000
											CHANNELS 3 Xrotation Yrotation Zrotation
											JOINT LeftHandMiddle2
											{
												OFFSET 3.861618 0.000000 0.000000
												CHANNELS 3 Xrotation Yrotation Zrotation
												JOINT LeftHandMiddle3
												{
													OFFSET 3.701603 0.000000 0.000000
													CHANNELS 3 Xrotation Yrotation Zrotation
													JOINT LeftHandMiddle4
													{
														OFFSET 2.322544 0.000000 0.000000
														CHANNELS 3 Xrotation Yrotation Zrotation
														End Site
														{
															OFFSET 0.000000 0.000000 0.000000
														}
													}
												}
											}
										}
										JOINT LeftHandRing1
										{
											OFFSET 8.426460 -0.424637 -3.286992
											CHANNELS 3 Xrotation Yrotation Zrotation
											JOINT LeftHandRing2
											{
												OFFSET 3.126408 0.000000 0.000000
												CHANNELS 3 Xrotation Yrotation Zrotation
												JOINT LeftHandRing3
												{
													OFFSET 3.085026 0.000000 0.000000
													CHANNELS 3 Xrotation Yrotation Zrotation
													JOINT LeftHandRing4
													{
														OFFSET 1.644005 0.000000 0.000000
														CHANNELS 3 Xrotation Yrotation Zrotation
														End Site
														{
															OFFSET 0.000000 0.000000 0.000000
														}
													}
												}
											}
										}
									}
								}
							}
						}
					}
					JOINT RightShoulder
					{
						OFFSET -2.196100 4.412496 0.070690
						CHANNELS 3 Xrotation Yrotation Zrotation
						JOINT RightShoulder_split
						{
							OFFSET -2.196100 4.412496 0.070690
							CHANNELS 3 Xrotation Yrotation Zrotation
							JOINT RightArm
							{
								OFFSET -8.771282 -2.981682 -0.094208
								CHANNELS 3 Xrotation Yrotation Zrotation
								JOINT RightForeArm
								{
									OFFSET -8.494598 0.000000 0.000000
									CHANNELS 3 Xrotation Yrotation Zrotation
									JOINT RightHand
									{
										OFFSET -18.483803 0.000000 0.000001
										CHANNELS 3 Xrotation Yrotation Zrotation
										JOINT RightHandThumb1
										{
											OFFSET -2.527351 -1.008072 2.575253
											CHANNELS 3 Xrotation Yrotation Zrotation
											JOINT RightHandThumb2
											{
												OFFSET -2.321518 -1.340328 1.340329
												CHANNELS 3 Xrotation Yrotation Zrotation
												JOINT RightHandThumb3
												{
													OFFSET -2.657753 -1.534454 1.534455
													CHANNELS 3 Xrotation Yrotation Zrotation
													JOINT RightHandThumb4
													{
														OFFSET -1.807510 -1.043568 1.043567
														CHANNELS 3 Xrotation Yrotation Zrotation
														End Site
														{
															OFFSET 0.000000 0.000000 0.000000
														}
													}
												}
											}
										}
										JOINT RightHandIndex1
										{
											OFFSET -8.811420 0.015533 2.887987
											CHANNELS 3 Xrotation Yrotation Zrotation
											JOINT RightHandIndex2
											{
												OFFSET -3.537502 0.000000 0.000000
												CHANNELS 3 Xrotation Yrotation Zrotation
												JOINT RightHandIndex3
												{
													OFFSET -3.356201 0.000000 0.000000
													CHANNELS 3 Xrotation Yrotation Zrotation
													JOINT RightHandIndex4
													{
														OFFSET -1.933098 0.000000 0.000000
														CHANNELS 3 Xrotation Yrotation Zrotation
														End Site
														{
															OFFSET 0.000000 0.000000 0.000000
														}
													}
												}
											}
										}
										JOINT RightHandMiddle1
										{
											OFFSET -8.178135 0.000000 0.000000
											CHANNELS 3 Xrotation Yrotation Zrotation
											JOINT RightHandMiddle2
											{
												OFFSET -3.901302 0.000000 0.000000
												CHANNELS 3 Xrotation Yrotation Zrotation
												JOINT RightHandMiddle3
												{
													OFFSET -3.909599 0.000000 0.000000
													CHANNELS 3 Xrotation Yrotation Zrotation
													JOINT RightHandMiddle4
													{
														OFFSET -2.376003 0.000000 0.000000
														CHANNELS 3 Xrotation Yrotation Zrotation
														End Site
														{
															OFFSET 0.000000 0.000000 0.000000
														}
													}
												}
											}
										}
										JOINT RightHandRing1
										{
											OFFSET -7.559013 0.014137 -2.865403
											CHANNELS 3 Xrotation Yrotation Zrotation
											JOINT RightHandRing2
											{
												OFFSET -3.449306 0.000000 0.000000
												CHANNELS 3 Xrotation Yrotation Zrotation
												JOINT RightHandRing3
												{
													OFFSET -3.362106 0.000000 0.000000
													CHANNELS 3 Xrotation Yrotation Zrotation
													JOINT RightHandRing4
													{
														OFFSET -2.076401 0.000000 0.000000
														CHANNELS 3 Xrotation Yrotation Zrotation
														End Site
														{
															OFFSET 0.000000 0.000000 0.000000
														}
													}
												}
											}
										}
									}
								}
							}
						}
					}
				}
			}
		}
	}
	JOINT LeftUpLeg
	{
		OFFSET 10.205400 -3.823500 0.155100
		CHANNELS 3 Xrotation Yrotation Zrotation
		JOINT LeftLeg
		{
			OFFSET 0.708757 -12.982077 0.567790
			CHANNELS 3 Xrotation Yrotation Zrotation
			JOINT LeftFoot
			{
				OFFSET -0.708756 -10.717838 -2.184338
				CHANNELS 3 Xrotation Yrotation Zrotation
				JOINT LeftToeBase
				{
					OFFSET 0.108149 -7.191104 7.560241
					CHANNELS 3 Xrotation Yrotation Zrotation
					JOINT LeftToe_End
					{
						OFFSET 0.070230 0.081724 4.490308
						CHANNELS 3 Xrotation Yrotation Zrotation
						End Site
						{
							OFFSET 0.000000 0.000000 0.000000
						}
					}
				}
			}
		}
	}
	JOINT RightUpLeg
	{
		OFFSET -10.205400 -3.823500 0.005500
		CHANNELS 3 Xrotation Yrotation Zrotation
		JOINT RightLeg
		{
			OFFSET -0.708756 -12.982134 0.610632
			CHANNELS 3 Xrotation Yrotation Zrotation
			JOINT RightFoot
			{
				OFFSET 0.708754 -10.717769 -1.945823
				CHANNELS 3 Xrotation Yrotation Zrotation
				JOINT RightToeBase
				{
					OFFSET -0.108140 -7.191069 7.372968
					CHANNELS 3 Xrotation Yrotation Zrotation
					JOINT RightToe_End
					{
						OFFSET -0.070227 0.081735 4.479403
						CHANNELS 3 Xrotation Yrotation Zrotation
						End Site
						{
							OFFSET 0.000000 0.000000 0.000000
						}
					}
				}
			}
		}
	}
}
MOTION
Frames: 4
Frame Time: 0.016667
-0.334893 31.112579 -0.278968 1.625663 155.860218 1.917542 5.547035 -0.108597 -0.235245 11.095616 0.009767 -0.734627 0.000000 0.000000 0.000000 11.095643 0.009771 -0.734628 -10.509367 -1.524997 -3.378805 -17.396260 -3.946706 2.467847 0.000000 -0.000000 0.000000 9.458507 -6.444345 -14.996485 0.000000 0.000000 0.000000 -9.678075 10.609542 -35.777204 0.014672 -55.260974 0.178999 23.479001 -9.549557 10.015904 7.350854 -14.484224 -10.934837 -1.067074 0.182831 1.946106 -0.000011 -0.000013 -0.000018 -0.000004 -0.000004 0.000001 5.776122 -9.584543 -10.641316 0.033754 0.666542 -10.636453 0.000001 0.000001 -0.000000 -0.000000 0.000000 0.000002 1.641866 7.127201 -4.239632 -0.187954 -0.789340 -15.969028 -0.000002 0.000004 -0.000003 0.000000 0.000000 -0.000001 1.677275 11.039974 -8.046044 -0.183059 -2.876881 -23.912164 -0.000008 0.000007 0.000003 0.000001 0.000000 -0.000001 -3.413063 0.044918 -0.357055 0.000000 0.000000 0.000000 -8.509101 -11.385595 60.673574 -0.093555 56.136789 -0.118026 33.241366 -12.824969 -17.733596 -4.978389 12.391667 9.407273 -1.210141 -0.220443 -2.121009 -0.000015 0.000001 -0.000006 -0.000004 0.000003 0.000000 10.258609 13.576557 6.067481 0.012530 -0.647880 4.076583 0.000000 -0.000002 -0.000003 -0.000001 -0.000000 -0.000002 -1.738467 -1.670983 3.393804 -0.252713 0.798094 21.448269 0.000001 0.000003 -0.000007 -0.000000 0.000000 -0.000001 -0.824251 -13.700962 18.348852 -0.242224 2.213599 16.221182 0.000002 0.000004 0.000001 -0.000000 0.000000 0.000003 -29.433884 -9.824559 15.220805 31.492308 -2.246237 -1.882182 -0.911440 -2.150671 -18.771493 0.002990 -0.026212 0.062610 -0.000000 0.000004 0.000000 -13.026801 -11.772697 -25.824274 47.276602 5.993074 2.706907 -30.704576 -12.866381 14.421589 -0.012197 -0.109700 0.262106 0.000000 0.000003 0.000000 
-0.348959 31.074936 -0.294257 1.098237 154.911095 1.978583 5.540350 -0.146080 -0.288770 11.081756 -0.077133 -0.835930 0.000000 0.000000 0.000000 11.081762 -0.077129 -0.835931 -10.962310 -1.919709 -3.250076 -17.063821 -4.417235 3.165609 -0.000000 0.000001 0.000000 9.412422 -6.453418 -14.019430 0.000000 0.000000 0.000000 -8.662129 10.477092 -35.400485 0.010215 -54.481943 0.179149 23.395491 -10.993418 10.180205 7.349521 -14.482212 -10.935211 -1.067028 0.182829 1.946029 -0.000005 -0.000009 -0.000009 -0.000000 0.000001 -0.000000 5.776065 -9.584133 -10.640213 0.033754 0.666550 -10.636310 0.000001 0.000001 0.000002 -0.000000 0.000001 -0.000000 1.641811 7.127182 -4.239329 -0.187952 -0.789338 -15.968851 -0.000004 0.000005 -0.000005 -0.000002 0.000000 0.000002 1.677147 11.039876 -8.045507 -0.183062 -2.876815 -23.911709 -0.000004 0.000008 0.000000 0.000001 -0.000000 -0.000001 -3.299625 0.252116 -0.421587 0.000000 0.000000 0.000000 -8.140548 -9.974477 59.691844 -0.093564 55.025401 -0.121944 32.733060 -11.033758 -18.050325 -4.980121 12.389515 9.406458 -1.210078 -0.220420 -2.120945 -0.000010 0.000001 -0.000007 0.000004 -0.000002 -0.000000 10.258454 13.576063 6.066714 0.012515 -0.647888 4.076572 0.000002 -0.000000 0.000001 0.000002 -0.000001 0.000001 -1.738417 -1.671045 3.393420 -0.252701 0.798093 21.447907 0.000001 0.000004 -0.000005 0.000000 0.000001 0.000002 -0.824391 -13.700839 18.347112 -0.242214 2.213577 16.220929 0.000003 0.000004 -0.000001 -0.000000 -0.000000 -0.000000 -30.096310 -8.745390 15.987340 32.697031 -2.372788 -1.921620 -1.892284 -2.494164 -18.641779 0.346323 0.059124 -0.008213 0.000000 -0.000001 -0.000000 -14.198415 -10.718923 -25.537966 47.897548 5.958526 2.703744 -30.548882 -12.681779 14.350859 -0.012204 -0.109724 0.262097 0.000000 0.000001 0.000000 
-0.364586 31.011703 -0.311999 0.306203 153.516889 2.102242 5.531592 -0.181616 -0.350823 11.063668 -0.166385 -0.951348 0.000000 0.000000 0.000000 11.063658 -0.166375 -0.951353 -11.367803 -2.308013 -3.134615 -16.612926 -4.878093 3.873085 -0.000000 0.000001 -0.000000 9.287388 -6.480149 -13.016972 0.000000 0.000000 0.000000 -7.148100 10.286343 -34.868133 0.002831 -53.374401 0.177103 23.239188 -12.346996 10.353355 7.347634 -14.479391 -10.935750 -1.066975 0.182827 1.945981 -0.000000 -0.000012 -0.000010 -0.000002 -0.000001 -0.000002 5.775937 -9.583593 -10.639076 0.033758 0.666515 -10.636077 0.000001 0.000002 -0.000001 0.000000 -0.000001 -0.000001 1.641734 7.127104 -4.238993 -0.187949 -0.789344 -15.968586 -0.000005 0.000004 -0.000006 -0.000000 0.000000 -0.000001 1.676992 11.039730 -8.044927 -0.183044 -2.876739 -23.911096 -0.000004 0.000007 0.000000 0.000002 0.000000 0.000001 -3.131409 0.557783 -0.519350 0.000000 0.000000 0.000000 -7.620076 -7.972469 58.297304 -0.094673 53.382843 -0.125871 32.021474 -8.492660 -18.497064 -4.982273 12.386635 9.405937 -1.210016 -0.220407 -2.120880 -0.000016 0.000007 -0.000004 -0.000002 0.000000 -0.000002 10.258136 13.575366 6.065982 0.012524 -0.647862 4.076557 -0.000000 -0.000001 0.000003 0.000002 -0.000002 0.000004 -1.738354 -1.671121 3.393037 -0.252687 0.798078 21.447383 0.000001 0.000004 -0.000005 -0.000001 -0.000001 0.000001 -0.824524 -13.700612 18.345285 -0.242208 2.213511 16.220533 0.000003 0.000004 -0.000002 -0.000000 0.000000 -0.000000 -30.913716 -7.563387 17.019313 34.384842 -2.571417 -1.980337 -3.317741 -2.556704 -18.581987 0.690443 0.188216 -0.109175 0.000000 -0.000001 0.000000 -15.940979 -9.259141 -25.157433 48.764511 5.907255 2.698159 -30.270162 -12.310902 14.278597 -0.012192 -0.109704 0.262105 0.000000 -0.000000 -0.000000 
-0.390994 30.884563 -0.347782 -1.205269 150.907757 2.434785 5.516372 -0.210722 -0.437845 11.032438 -0.262066 -1.106973 0.000000 0.000000 0.000000 11.032434 -0.262067 -1.106975 -11.644143 -2.672796 -3.043679 -15.844137 -5.313085 4.602628 0.000000 0.000002 -0.000000 8.947995 -6.559113 -11.945464 0.000000 0.000000 0.000000 -4.288841 9.928062 -33.890900 -0.012166 -51.337034 0.169231 22.892542 -13.455994 10.544917 7.344180 -14.474187 -10.936699 -1.066920 0.182803 1.945942 -0.000002 -0.000011 -0.000016 -0.000003 -0.000005 -0.000002 5.775576 -9.582687 -10.637827 0.033747 0.666485 -10.635704 0.000001 0.000001 -0.000001 0.000000 -0.000000 -0.000001 1.641598 7.126957 -4.238593 -0.187941 -0.789309 -15.968120 -0.000003 0.000003 -0.000003 0.000000 -0.000001 -0.000000 1.676780 11.039381 -8.044200 -0.183003 -2.876592 -23.909977 -0.000005 0.000007 -0.000001 0.000001 0.000001 0.000001 -2.814928 1.132003 -0.706569 0.000000 0.000000 0.000000 -6.670049 -4.296617 55.732663 -0.098515 50.295956 -0.129482 30.742914 -3.827468 -19.312438 -4.985594 12.381780 9.406304 -1.209974 -0.220400 -2.120812 -0.000006 -0.000006 -0.000005 0.000004 -0.000003 0.000002 10.257423 13.574227 6.065330 0.012511 -0.647849 4.076517 -0.000001 -0.000004 -0.000001 -0.000002 0.000001 -0.000000 -1.738271 -1.671259 3.392621 -0.252685 0.798047 21.446441 0.000001 0.000003 -0.000001 -0.000000 -0.000000 0.000001 -0.824648 -13.700135 18.343231 -0.242205 2.213416 16.219823 0.000003 0.000003 -0.000002 -0.000000 -0.000000 -0.000001 -32.205226 -6.038910 18.791997 37.400770 -2.967553 -2.088843 -5.949420 -1.936463 -18.619550 0.869772 0.433953 -0.095883 -0.000000 0.000001 -0.000000 -19.225903 -6.652681 -24.387870 50.291113 5.807552 2.685428 -29.658413 -11.539087 14.191679 -0.012207 -0.109744 0.262110 -0.000000 0.000006 0.000000 
